<svg xmlns="http://www.w3.org/2000/svg" width="256" height="256"><path fill="#1976D2" fill-opacity=".016" fill-rule="evenodd" d="M0 128.004v128.004l128.25-.254 128.25-.254.254-127.75L257.008 0H0v128.004m.485.496c0 70.4.119 99.053.265 63.672.146-35.38.146-92.98 0-128C.604 29.153.485 58.1.485 128.5"/><path fill="#1976D2" fill-opacity=".442" fill-rule="evenodd" d="M42.5 1c-.34.55-1.332 1-2.204 1-.872 0-4.858 1.574-8.858 3.498-12.401 5.964-23.453 17.934-27.81 30.117-.961 2.687-2.17 5.666-2.688 6.621-1.263 2.333-1.263 170.195 0 172.528.518.955 1.727 3.934 2.688 6.621 5.252 14.688 18.127 27.166 33.665 32.627C42.769 255.937 45.681 256 128.5 256c82.819 0 85.731-.063 91.207-1.988 16.639-5.848 28.35-17.811 34.759-35.508l2.534-6.995v-84.755C257 70.918 256.659 42 256 42c-.55 0-1-.74-1-1.645 0-3.487-7.235-16.451-12.248-21.947-5.945-6.519-14.164-12.204-21.367-14.78-2.687-.961-5.666-2.17-6.621-2.688C212.324-.381 43.317-.322 42.5 1m113.28 38.903C149.121 41.286 138.638 49 143.417 49c.87 0 1.583-.45 1.583-1s.9-1 2-1 2-.436 2-.969c0-.532.681-.707 1.513-.388.832.32 2.152.05 2.934-.599 2.97-2.465 17.489-1.213 28.053 2.419l2 .688-2-1.24c-1.1-.682-2.225-1.564-2.5-1.96-2.668-3.84-15.553-6.641-23.22-5.048M.478 128.5c0 47.3.122 66.504.272 42.675.149-23.829.149-62.529 0-86C.6 61.704.478 81.2.478 128.5m96.348-72.566c-7.019 2.237-18.941 10.119-27.059 17.89C60.698 82.506 51.408 97.186 48.773 107c-4.716 17.564-5.899 28.989-3.821 36.884.523 1.989 1.726 7.147 2.672 11.464.946 4.316 2.318 8.076 3.048 8.357.731.28 1.328 1.546 1.328 2.813 0 1.343 1.278 3.38 3.065 4.883 1.686 1.419 2.784 3.034 2.441 3.589-.343.556-.147 1.01.435 1.01s1.059.87 1.059 1.934c0 1.361.807 2.027 2.727 2.25 1.618.187 3.179 1.228 3.839 2.559 1.983 4 4.626 6.342 5.934 5.257.831-.69 1.748-.383 3.003 1.004.994 1.098 2.357 1.996 3.03 1.996.672 0 1.808.706 2.525 1.57.716.863 2.106 1.359 3.088 1.102.982-.257 1.689-.011 1.57.547-.119.557 1.359 1.904 3.284 2.992 1.925 1.089 4.429 2.837 5.564 3.884 1.136 1.048 2.823 1.905 3.75 1.905.928 0 1.686.408 1.686.906 0 .499.849.685 1.887.413 1.038-.271 2.19-.004 2.559.594.37.598 1.545 1.087 2.613 1.087s1.941.45 1.941 1 1.125 1 2.5 1 2.5.445 2.5.988c0 .563 2.89.945 6.712.888 4.124-.062 6.856.328 7.084 1.011.461 1.384 7.859 1.479 8.704.113.34-.55 2.815-1 5.5-1s5.16-.45 5.5-1c.34-.55 1.915-1 3.5-1s3.16-.45 3.5-1c.34-.55 1.716-1 3.059-1 1.343 0 2.441-.486 2.441-1.079 0-.667 1.09-.84 2.85-.454 2.368.52 3.257.112 5.25-2.411 1.32-1.671 2.874-3.042 3.454-3.047.579-.005 2.54-1.542 4.357-3.417 3.202-3.304 3.241-3.441 1.261-4.5-3.139-1.68-4.598-1.37-11.554 2.454-7.056 3.878-9.861 4.883-19.618 7.026-7.36 1.617-22.815 1.896-27.429.496a800.065 800.065 0 0 0-7.484-2.214c-21.293-6.184-40.618-26.861-46.476-49.728-1.939-7.568-2.077-24.663-.252-31.126 1.172-4.148 1.909-6.062 5.006-13 2.223-4.979 7.74-13.022 11.471-16.72 10.204-10.116 16.1-15.193 16.637-14.324.956 1.547 3.384.058 3.719-2.281.401-2.804 5.66-5.533 6.875-3.567 1.219 1.972 2.107.529 2.652-4.311.385-3.416.078-4.671-1.493-6.092-2.353-2.13-7.678-2.957-11.4-1.771m85.046 125.729c-1.118 1.355-1.13 1.744-.061 2.103 1.009.34.916.878-.405 2.338-1.574 1.74-1.579 1.896-.061 1.896.91 0 1.692-.562 1.736-1.25.045-.687.172-2.488.283-4 .238-3.238.266-3.217-1.492-1.087m-7.697 5.913c-1.148 1.3-.981 1.414 1.25.853 1.758-.441 2.575-.241 2.575.629 0 .702.236 1.04.524.752.845-.846-.634-3.813-1.881-3.772-.629.021-1.739.713-2.468 1.538M172 194c0 .55.477 1 1.059 1s.781-.45.441-1-.816-1-1.059-1-.441.45-.441 1m-4.493 3.989c-.35.566.051.734.941.393 1.732-.665 2.049-1.382.611-1.382-.518 0-1.216.445-1.552.989"/><path fill="#1976D2" fill-opacity=".393" fill-rule="evenodd" d="M45 .872c0 .48-1.71 1.146-3.8 1.48-4.814.77-14.23 5.496-20.7 10.389-6.003 4.54-14.618 16.957-16.943 24.419-.915 2.937-2.09 6.121-2.61 7.076-1.275 2.338-1.275 166.19 0 168.528.52.955 1.695 4.139 2.61 7.076 3.682 11.818 14.088 23.839 26.471 30.579C40.392 256.059 39.343 256 128.5 256c70.517 0 82.909-.216 87.965-1.533 17.552-4.572 31.898-18.696 37.937-37.35l2.598-8.026v-82.462c0-45.354-.344-82.612-.764-82.796-.421-.183-1.569-2.921-2.552-6.085-2.434-7.833-11.045-20.364-17.184-25.007-6.47-4.893-15.886-9.619-20.7-10.389-2.09-.334-3.8-1-3.8-1.48C212 .383 175.343 0 128.5 0S45 .383 45 .872m110.131 37.317c-5.905 1.319-13.035 5.864-17.066 10.879-4.96 6.173-6.084 12.741-4.476 26.161.608 5.072.47 5.799-1.201 6.349-5.449 1.794-15.256 6.045-17.888 7.755-8.18 5.313-18.842 19.638-20.965 28.167-1.458 5.859-.65 22.346 1.314 26.82 1.009 2.299 2.414 5.65 3.121 7.447 1.602 4.068 10.191 12.02 16.091 14.898 6.934 3.383 10.755 4.336 17.338 4.324 19.175-.034 33.546-12.365 36.585-31.392 1.17-7.319.385-14.27-2.971-26.334-3.519-12.652-2.714-13.505 7.402-7.848 9.313 5.208 13.97 11.158 19.439 24.83 1.88 4.699 2.528 17.978 1.164 23.869-2.108 9.112-7.589 18.772-14.828 26.136-3.65 3.712-7.134 6.75-7.742 6.75-.608 0-3.2 1.387-5.759 3.083-2.56 1.695-7.7 4.252-11.422 5.682-5.972 2.293-8.449 2.63-21.087 2.863-7.876.146-15.301-.121-16.5-.593-1.199-.473-4.867-1.891-8.15-3.153-5.583-2.144-13.409-6.431-18.043-9.883C86.719 182.938 78 172.753 78 171.582c0-.524-.847-1.882-1.882-3.018-2.719-2.983-7.118-11.7-7.118-14.106 0-1.132-.378-2.486-.839-3.008-1.999-2.264-3.392-12.552-2.917-21.557.818-15.537 7.172-30.189 17.747-40.925C85.539 86.381 93.792 80 94.59 80c.414 0 1.503-.679 2.42-1.509.917-.83 4.102-2.742 7.078-4.25 6.91-3.5 9.698-8.329 7.92-13.718-.634-1.919-2.427-4.397-3.984-5.506-4.235-3.016-7.86-2.73-17.024 1.343-4.112 1.828-15.353 8.706-17.5 10.707C59.79 79.852 51.909 91.034 47.47 104c-1.035 3.025-2.194 5.95-2.574 6.5-1.823 2.637-3.157 17.336-2.571 28.323.621 11.657 1.544 16.571 4.355 23.177 4.872 11.454 7.022 15.807 9.047 18.327 1.25 1.554 2.273 3.175 2.273 3.6 0 .425 3.836 4.553 8.524 9.173 8.164 8.045 22.584 18.83 25.24 18.878.695.012 2.045.448 3 .969 7.712 4.207 25.336 8.061 36.736 8.033 7.584-.018 21.428-2.17 26.094-4.055 1.598-.646 3.806-1.532 4.906-1.97 13.793-5.488 19.461-8.941 27.763-16.918 10.175-9.776 16.574-20.189 20.303-33.037 2.846-9.808 2.68-31.934-.312-41.557-4.321-13.896-21.338-34.203-31.396-37.465-2.397-.777-5.483-1.99-6.858-2.696-1.375-.706-5.129-1.831-8.341-2.501-5.222-1.09-6.04-1.607-7.708-4.876-1.026-2.012-1.647-3.876-1.38-4.142.267-.267.044-1.646-.496-3.065-.725-1.908-.582-3.379.551-5.649.842-1.689 1.915-2.833 2.383-2.543.469.29 1.135.069 1.481-.49 1.018-1.647 7.045-1.163 9.625.774 6.584 4.941 12.343 5.464 16.073 1.46 3.046-3.269 3.929-7.244 2.643-11.9-1.17-4.236-9.111-9.808-16.953-11.895-6.07-1.616-8.503-1.659-14.747-.266M.478 128.5c0 46.2.122 64.954.272 41.675.149-23.279.149-61.079 0-84C.6 63.254.478 82.3.478 128.5m135.383-27.492c-5.237.923-15.603 7.899-18.636 12.541-8.375 12.818-6.921 26.162 3.735 34.262 4.213 3.203 4.829 3.37 11.11 3.015 8.35-.472 12.692-3.191 15.754-9.867 2.775-6.048 2.734-8.814-.286-19.637-4.685-16.783-5.844-20.225-6.939-20.59-.604-.201-2.737-.077-4.738.276"/><path fill="#1976D2" fill-opacity=".871" fill-rule="evenodd" d="M48 .862c0 .474-2.47 1.358-5.489 1.964-9.137 1.835-18.31 6.916-25.54 14.145-7.229 7.23-12.31 16.403-14.145 25.54C2.22 45.53 1.336 48 .862 48 .386 48 0 84.095 0 128.5S.386 209 .862 209c.474 0 1.358 2.47 1.964 5.489 3.887 19.356 19.927 35.163 40.527 39.941 10.166 2.357 160.128 2.357 170.294 0 20.479-4.75 36.437-20.372 40.454-39.606.612-2.928 1.515-5.752 2.006-6.274 1.16-1.234 1.187-161.85.026-161.132-.476.294-1.36-1.924-1.964-4.93-3.804-18.941-20.726-35.855-39.68-39.662C211.47 2.22 209 1.336 209 .862 209 .386 172.905 0 128.5 0S48 .386 48 .862m103.156 33.627c-2.39.746-8.915 1.61-14.5 1.921-15.117.841-27.42 2.322-34.156 4.112-3.3.876-7.125 1.834-8.5 2.127-2.397.511-6.825 2.414-10 4.295-.825.489-3.075 1.585-5 2.435-1.925.849-4.938 2.912-6.696 4.583C70.547 55.633 68.722 57 68.25 57c-.472 0-2.408 1.605-4.304 3.566-1.895 1.961-4.908 4.473-6.696 5.582-1.787 1.108-3.25 2.464-3.25 3.013 0 .548-2.025 3.022-4.5 5.497S45 79.609 45 80.161c0 .551-1.481 2.878-3.292 5.171-3.726 4.717-4.961 7.239-6.691 13.668-.667 2.475-1.618 5.281-2.114 6.236-.497.955-.903 2.553-.903 3.55 0 .998-.562 2.377-1.25 3.064-.926.926-1.244 6.997-1.227 23.45.019 18.241.311 22.842 1.637 25.802.888 1.981 1.935 5.581 2.326 8 2.272 14.03 9.515 28.387 18.347 36.366 10.575 9.554 15.854 12.936 30.167 19.325 9.186 4.101 11.559 5.036 14 5.517 1.375.271 4.798 1.129 7.606 1.907s6.751 1.223 8.763.988c2.012-.235 4.246.06 4.963.656 2.671 2.217 44.668 1.286 44.668-.99 0-.479 1.575-.871 3.5-.871s3.5-.45 3.5-1 1.098-1 2.441-1c1.343 0 2.719-.45 3.059-1 .34-.55 1.661-1 2.937-1 1.275 0 2.92-.725 3.656-1.612.736-.887 3.604-2.649 6.373-3.917 2.768-1.267 6.159-3.509 7.534-4.983 1.375-1.473 3.738-3.322 5.25-4.109 1.512-.787 2.75-2.01 2.75-2.718 0-.708 1.373-2.602 3.05-4.209 1.678-1.607 4.897-6.754 7.154-11.437 2.257-4.683 4.485-9.296 4.95-10.251.465-.955.846-2.333.846-3.063 0-.729.856-3.097 1.902-5.263 1.046-2.166 2.223-6.081 2.615-8.7.393-2.62 1.112-5.009 1.598-5.309.487-.301.885-2.23.885-4.288 0-2.058.54-4.281 1.2-4.941.933-.933.933-1.2 0-1.2-.66 0-1.2-.675-1.2-1.5s.45-1.5 1-1.5c.606 0 1-4.333 1-11s-.394-11-1-11c-.55 0-1-1.125-1-2.5s-.45-2.5-1-2.5-1-1.35-1-3-.398-3-.883-3c-.486 0-1.213-1.013-1.616-2.25-.906-2.786-.748-2.398-3.053-7.5-1.056-2.338-2.264-4.25-2.684-4.25-.42 0-.764-.9-.764-2s-.414-2-.921-2c-.506 0-1.206-1.303-1.556-2.896-.35-1.593-1.511-3.688-2.58-4.655-1.069-.968-1.943-2.286-1.943-2.93 0-.644-1.125-2.227-2.5-3.519-1.375-1.292-2.5-2.697-2.5-3.123 0-.426-1.125-1.988-2.5-3.472-1.375-1.483-2.5-3.237-2.5-3.896 0-.659-.9-2.014-2-3.009-1.626-1.472-2-3.08-2-8.608 0-7.466-.899-10.228-5.452-16.751-6.515-9.332-24.867-14.56-37.392-10.652M.477 128.5c0 44.55.122 62.921.273 40.825.15-22.097.15-58.547 0-81C.6 65.871.477 83.95.477 128.5M92 220c0 .55.45 1 1 1s1-.45 1-1-.45-1-1-1-1 .45-1 1m4.566.953c-1.063.386-1.513.948-1 1.249.514.301 1.804.232 2.868-.155 1.063-.386 1.513-.948 1-1.249-.514-.301-1.804-.232-2.868.155M163 221c0 .55.477 1 1.059 1s.781-.45.441-1-.816-1-1.059-1-.441.45-.441 1m-61.312 1.646c-1.305 1.304-.682 2.354 1.395 2.354 1.164 0 1.909-.524 1.688-1.187-.487-1.462-2.157-2.094-3.083-1.167m55.819.343c-.722 1.168 2.665 2.239 3.726 1.178.532-.532.056-1.12-1.166-1.439-1.136-.297-2.288-.18-2.56.261m-48.854 1.878c-1.758.692-1.762.797-.087 2.18 1.351 1.116 1.857 1.163 2.18.203.231-.687 1.171-1.257 2.087-1.265 1.442-.014 1.464-.147.167-.985-1.718-1.11-1.852-1.114-4.347-.133m40.591-.203c-.691.279-1.028.876-.749 1.328.639 1.033 4.505.082 4.505-1.109 0-.945-1.708-1.045-3.756-.219M118 227c0 .55-.9 1-2 1s-2 .45-2 1c0 .581 3.267 1 7.8 1 4.733 0 8.272.472 9 1.2.933.933 1.2.933 1.2 0 0-.767 1.733-1.2 4.8-1.2 4.427 0 7.2-1.233 7.2-3.2 0-.44-5.85-.8-13-.8-8 0-13 .385-13 1"/></svg>